<?xml version="1.0" standalone="no"?>
<!DOCTYPE svg PUBLIC "-//W3C//DTD SVG 20010904//EN"
 "http://www.w3.org/TR/2001/REC-SVG-20010904/DTD/svg10.dtd">
<svg version="1.0" xmlns="http://www.w3.org/2000/svg"
 width="500.000000pt" height="500.000000pt" viewBox="0 0 500.000000 500.000000"
 preserveAspectRatio="xMidYMid meet">
<metadata>
Created by potrace 1.14, written by Peter Selinger 2001-2017
</metadata>
<g transform="translate(0.000000,500.000000) scale(0.100000,-0.100000)"
fill="#000000" stroke="none">
<path d="M3372 3881 c-7 -4 -15 -32 -18 -62 -3 -29 -7 -55 -9 -58 -6 -5 -65
-11 -175 -15 -114 -5 -191 -31 -243 -81 -20 -19 -42 -35 -50 -35 -7 0 -18 -5
-25 -12 -7 -7 -12 -8 -12 -2 0 12 -35 12 -47 1 -6 -6 31 -40 47 -43 18 -3 64
-27 76 -39 20 -19 4 -19 -46 1 -39 16 -42 16 -55 -2 -7 -11 -11 -21 -9 -24 3
-2 9 2 15 10 8 13 11 13 22 -1 6 -9 25 -19 41 -23 21 -5 26 -10 18 -18 -8 -8
-19 -8 -39 0 -15 6 -41 13 -58 14 -16 2 -32 6 -35 9 -3 3 -25 13 -50 21 -25 9
-52 19 -61 22 -10 5 -16 2 -16 -9 0 -8 2 -13 5 -11 2 3 14 -6 27 -19 12 -14
25 -22 28 -18 4 3 7 -3 7 -15 0 -18 6 -22 33 -23 17 0 55 -11 82 -24 61 -28
44 -32 -26 -6 -37 15 -47 16 -38 5 6 -8 17 -14 24 -14 20 0 67 -27 58 -33 -10
-6 -36 -4 -96 8 -24 5 -42 3 -51 -5 -10 -8 -21 -8 -33 -2 -22 12 -71 -4 -57
-18 5 -5 34 -22 64 -38 30 -16 56 -36 58 -45 4 -24 -46 -146 -76 -187 -54 -72
-114 -119 -190 -149 -83 -33 -130 -35 -254 -10 -78 15 -150 22 -233 22 -132 1
-188 -12 -283 -66 l-53 -29 -41 28 c-213 149 -457 129 -632 -52 -25 -26 -46
-51 -46 -56 0 -5 -14 -26 -30 -47 -29 -36 -36 -53 -45 -114 -2 -16 -8 -34 -13
-40 -9 -12 -20 -47 -28 -97 -5 -24 -25 -90 -66 -215 -19 -57 -26 -154 -13
-175 4 -6 8 -45 10 -88 1 -42 6 -94 10 -114 5 -29 4 -38 -6 -38 -8 -1 -3 -7
11 -15 23 -12 25 -18 22 -79 l-4 -66 27 12 c22 10 25 17 22 46 -4 27 -2 32 10
28 10 -4 13 -2 10 8 -4 10 -1 13 8 10 10 -4 13 2 13 23 -3 75 52 198 308 691
35 67 61 122 58 122 -3 0 4 13 15 29 12 16 21 33 21 38 0 20 48 53 85 59 22 3
42 6 45 7 3 1 29 -2 58 -6 62 -9 72 -25 44 -65 -36 -49 -60 -140 -60 -221 0
-77 12 -143 47 -264 11 -37 18 -76 16 -86 -5 -26 -32 -79 -94 -186 -112 -191
-149 -269 -170 -359 -12 -49 -26 -95 -32 -103 -7 -7 -8 -13 -5 -13 4 0 -1 -12
-12 -27 -25 -36 -36 -71 -46 -150 -3 -24 0 -33 12 -37 23 -6 193 -6 215 0 24
7 23 79 -3 127 -20 37 -20 38 -1 105 18 62 70 197 108 282 9 19 30 54 46 78
l30 42 21 -26 c12 -15 59 -58 106 -96 47 -39 87 -75 88 -79 2 -5 10 -9 18 -9
8 0 14 -4 14 -8 0 -5 30 -33 67 -63 36 -30 74 -61 83 -69 8 -8 33 -28 55 -45
22 -16 48 -38 59 -49 10 -10 33 -22 50 -25 32 -7 225 -5 261 3 11 3 26 5 33 5
33 2 -4 84 -67 147 -30 31 -34 32 -127 33 -52 1 -105 6 -118 10 -20 8 -193
148 -263 214 -23 21 -34 43 -39 73 -5 37 -1 51 31 111 21 37 54 97 73 133 19
36 46 85 60 110 13 25 41 62 62 82 l37 37 64 -20 c200 -61 269 -72 456 -73
l151 -1 47 -71 c47 -71 100 -112 254 -195 l43 -24 -6 -112 c-4 -62 -9 -123
-11 -135 -2 -13 -6 -59 -9 -103 -4 -44 -9 -105 -12 -136 -5 -51 -3 -59 20 -82
24 -24 30 -45 27 -87 -3 -36 14 -41 129 -41 62 0 116 3 121 8 10 10 -27 86
-74 150 -64 89 -70 108 -62 192 4 42 9 93 11 114 1 20 5 41 8 45 3 5 8 31 11
58 3 27 8 60 11 73 13 62 14 123 1 153 -8 18 -43 61 -77 94 -88 86 -83 92 77
92 71 0 133 2 138 4 35 11 139 -82 345 -311 58 -64 82 -83 104 -84 24 -2 34
-12 65 -70 l36 -68 122 3 c74 2 127 8 134 15 17 17 -29 90 -100 160 -60 59
-103 86 -154 97 -38 9 -251 223 -394 397 -42 51 -68 68 -98 63 -61 -10 -215
-4 -249 10 -39 16 -39 13 -19 101 10 43 10 72 -2 120 -14 60 -11 99 12 184 13
47 39 147 59 221 39 147 62 207 88 229 15 12 22 9 61 -32 25 -25 70 -59 101
-77 31 -17 73 -50 94 -72 41 -45 76 -54 122 -31 73 36 75 90 8 203 -27 47 -50
93 -50 102 0 10 7 33 17 52 22 47 10 73 -72 158 l-65 67 0 70 c0 50 -4 74 -16
85 -17 17 -44 21 -44 7 0 -22 -62 -14 -80 11 -3 4 -11 3 -18 -1z m-514 -435
c8 -9 -8 -7 -50 4 -21 6 -40 15 -43 20 -6 9 82 -14 93 -24z"/>
</g>
</svg>
